<svg xmlns="http://www.w3.org/2000/svg" viewBox="0 0 228 44" fill="none">
  <defs>
    <linearGradient id="calmGrad" x1="8" y1="10" x2="38" y2="34" gradientUnits="userSpaceOnUse">
      <stop offset="0" stop-color="#66707C"/>
      <stop offset="1" stop-color="#3A434E"/>
    </linearGradient>
  </defs>

  <rect x="2" y="2" width="40" height="40" rx="12" fill="#FAFBFC" stroke="#DCE1E7"/>
  <rect x="9" y="9" width="26" height="26" rx="9" fill="#FFFFFF"/>
  <path d="M13 15.8c0-1.9 1.5-3.2 3.4-3.2s3.4 1.3 3.4 3.2c0-1.9 1.5-3.2 3.4-3.2s3.4 1.3 3.4 3.2"
    stroke="url(#calmGrad)" stroke-width="2" stroke-linecap="round"/>
  <path d="M13 20.4c0-1.9 1.5-3.1 3.4-3.1s3.4 1.2 3.4 3.1c0-1.9 1.5-3.1 3.4-3.1s3.4 1.2 3.4 3.1"
    stroke="url(#calmGrad)" stroke-width="2" stroke-linecap="round"/>

  <text x="54" y="28" fill="#20252C" font-family="-apple-system, BlinkMacSystemFont, 'SF Pro Display', 'Noto Sans KR', sans-serif"
    font-size="23" font-weight="580" letter-spacing="-0.3">Mindlog</text>
</svg>
